<svg width="240" height="240" viewBox="0 0 240 240" fill="none" xmlns="http://www.w3.org/2000/svg">
  <defs>
    <linearGradient id="bg" x1="40" y1="30" x2="190" y2="210" gradientUnits="userSpaceOnUse">
      <stop stop-color="#5CC6FF"/>
      <stop offset="0.5" stop-color="#7E7BFF"/>
      <stop offset="1" stop-color="#FF6BCB"/>
    </linearGradient>
    <linearGradient id="arrow" x1="120" y1="70" x2="120" y2="190" gradientUnits="userSpaceOnUse">
      <stop stop-color="#FFFFFF" stop-opacity="0.95"/>
      <stop offset="1" stop-color="#E7F0FF"/>
    </linearGradient>
    <filter id="glow" x="20" y="20" width="200" height="200" filterUnits="userSpaceOnUse" color-interpolation-filters="sRGB">
      <feGaussianBlur stdDeviation="10" result="blur"/>
      <feMerge>
        <feMergeNode in="blur"/>
        <feMergeNode in="blur"/>
      </feMerge>
    </filter>
  </defs>
  <rect x="28" y="28" width="184" height="184" rx="36" fill="url(#bg)"/>
  <rect x="28" y="28" width="184" height="184" rx="36" fill="white" fill-opacity="0.05"/>
  <rect x="28" y="36" width="184" height="168" rx="32" fill="white" fill-opacity="0.07"/>
  <circle cx="80" cy="70" r="6" fill="white" fill-opacity="0.85"/>
  <circle cx="100" cy="60" r="4" fill="white" fill-opacity="0.8"/>
  <circle cx="150" cy="70" r="7" fill="white" fill-opacity="0.75"/>
  <g filter="url(#glow)">
    <circle cx="120" cy="132" r="46" fill="white" fill-opacity="0.18"/>
  </g>
  <path d="M120 70C114.477 70 110 73.4772 110 78V130.343L97.7574 118.101C94.5858 114.929 89.4142 114.929 86.2426 118.101C83.0711 121.272 83.0711 126.444 86.2426 129.615L113.243 156.616C116.414 159.787 121.586 159.787 124.757 156.616L151.757 129.615C154.929 126.444 154.929 121.272 151.757 118.101C148.586 114.929 143.414 114.929 140.243 118.101L128 130.343V78C128 73.4772 123.523 70 118 70H120Z" fill="url(#arrow)"/>
  <path d="M82 166C82 160.477 86.4772 156 92 156H148C153.523 156 158 160.477 158 166C158 171.523 153.523 176 148 176H92C86.4772 176 82 171.523 82 166Z" fill="white" fill-opacity="0.9"/>
  <path d="M96 170C94.3431 170 93 168.657 93 167C93 165.343 94.3431 164 96 164H144C145.657 164 147 165.343 147 167C147 168.657 145.657 170 144 170H96Z" fill="#7E7BFF" fill-opacity="0.9"/>
</svg>
